<svg xmlns="http://www.w3.org/2000/svg" viewBox="0 0 208 45.937"><g transform="translate(-60.858 -59.791)"><path d="M106.045,71.365a8.11,8.11,0,0,0-5.8,2.259V60.967H94.5V92.931h5.754V80.656a3.871,3.871,0,0,1,4.006-4.091,3.8,3.8,0,0,1,3.92,4.091V92.931h5.711V79.847C113.886,74.732,110.818,71.365,106.045,71.365Z" fill="#0d2c3b"/><path d="M165.8,87.841c-2.925.925-5.447.159-6.907-2.2l14.1-4.458a13.6,13.6,0,0,0-.585-3.122,9.6,9.6,0,0,0-12.423-6.354,10.882,10.882,0,0,0-7.2,13.853,11.059,11.059,0,0,0,14.339,7.043,12.9,12.9,0,0,0,7.1-5.551l-3.458-3.019A9.5,9.5,0,0,1,165.8,87.841Zm-4.617-11.636a4.293,4.293,0,0,1,5.633,2.689l-9.143,2.891A5.2,5.2,0,0,1,161.183,76.205Z" fill="#0d2c3b"/><rect width="5.754" height="26.423" transform="translate(176.443 66.507)" fill="#0d2c3b"/><path d="M188.006,66.507a3.562,3.562,0,1,0,3.708,3.58A3.6,3.6,0,0,0,188.006,66.507Z" fill="#0d2c3b"/><rect width="5.754" height="17.861" transform="translate(185.15 75.07)" fill="#0d2c3b"/><path d="M204.726,80.273l-2.046-.853c-1.662-.682-2.216-1.065-2.216-1.875,0-.98.852-1.492,2.259-1.492a6.762,6.762,0,0,1,4.73,2l2.9-3.537a9.8,9.8,0,0,0-7.585-3.155c-4.6,0-7.757,2.344-7.757,6.308,0,3.112,1.875,4.859,5.754,6.435l2.258.938c1.577.682,2.174,1.023,2.174,1.918,0,1.15-1.151,1.747-2.685,1.747a8.151,8.151,0,0,1-5.924-2.855l-2.9,3.495a10.653,10.653,0,0,0,8.737,4.091,9.3,9.3,0,0,0,5.882-1.791,5.854,5.854,0,0,0,2.344-4.943C210.65,83.6,208.817,81.935,204.726,80.273Z" fill="#0d2c3b"/><path d="M237.755,71.365a11.5,11.5,0,0,0-9.206,4.348l2.984,3.537c1.874-2,3.409-2.9,5.582-2.9,2.557,0,3.921,1.364,3.921,3.708V81h-5.285c-4.9,0-7.969,2.344-7.969,6.137,0,3.708,2.813,6.308,7.288,6.308a8.787,8.787,0,0,0,6.435-2.557v2.046h5.285V80.4C246.79,74.562,243.253,71.365,237.755,71.365Zm3.281,13.681a4.194,4.194,0,0,1-4.432,4.176c-1.833,0-3.026-.894-3.026-2.3s1.066-2.131,2.94-2.131h4.518Z" fill="#0d2c3b"/><path d="M260.927,71.365a8.622,8.622,0,0,0-6.179,2.388V71.835h-5.285v21.1h5.753V80.614a3.871,3.871,0,0,1,4.006-4.091,3.805,3.805,0,0,1,3.921,4.091V92.931h5.711V79.847C268.854,74.732,265.828,71.365,260.927,71.365Z" fill="#0d2c3b"/><path d="M213.389,76.7h5.754v-.007h5.966V71.835h-5.966V66.507h-5.754v5.327h0v4.858h0Z" fill="#0d2c3b"/><path d="M219.143,85V79.062h-5.754v6.453c0,5.284,3.111,7.927,8.439,7.927a16.311,16.311,0,0,0,3.963-.511V88.114c-1.492.129-2.386.171-2.727.171C220.336,88.285,219.143,87.39,219.143,85Z" fill="#0d2c3b"/><path d="M151.528,71.835h-5.966V66.507h-5.693V76.674h11.659Z" fill="#0d2c3b"/><path d="M126.826,88.18a5.383,5.383,0,0,1-5.439-5.694c0-3.357,2.252-5.779,5.439-5.779a5.506,5.506,0,0,1,5.439,5.779V82.5l5.726-1.87a11.2,11.2,0,0,0-11.164-9.154,10.988,10.988,0,1,0-.042,21.97,11.171,11.171,0,0,0,11.324-10.371l-6.478,2.116A5.262,5.262,0,0,1,126.826,88.18Z" fill="#0d2c3b"/><path d="M145.562,85V79.035h-5.754v6.48c0,5.284,3.111,7.927,8.439,7.927a16.311,16.311,0,0,0,3.963-.511V88.114c-1.492.129-2.386.171-2.727.171C146.755,88.285,145.562,87.39,145.562,85Z" fill="#0d2c3b"/><path d="M180.486,98.806a3.155,3.155,0,0,0-1.721-.5,2.057,2.057,0,0,0-1.769.744,3.191,3.191,0,0,0-.551,1.943,2.947,2.947,0,0,0,.416,1.653,2.167,2.167,0,0,0,1,.861,1.923,1.923,0,0,0,1.17.1,1.477,1.477,0,0,0,.937-.677v.329a1.574,1.574,0,0,1-.3.928,1.05,1.05,0,0,1-.58.377,1.075,1.075,0,0,1-1.112-.493h-1.412a2.047,2.047,0,0,0,2.2,1.663,3.2,3.2,0,0,0,1.721-.494,2,2,0,0,0,.793-1.846v-2.726A2.025,2.025,0,0,0,180.486,98.806Zm-.561,2.678a1.437,1.437,0,0,1-.251.667,1.052,1.052,0,0,1-1.14.357q-.774-.146-.774-1.479a2.529,2.529,0,0,1,.232-1.1.891.891,0,0,1,.889-.483.851.851,0,0,1,.735.348,1.8,1.8,0,0,1,.319.792A2.8,2.8,0,0,1,179.925,101.484Z" fill="#b3916e"/><path d="M182.76,96.911h-.7v6.651h1.353V97.549a.6.6,0,0,0-.193-.454A.649.649,0,0,0,182.76,96.911Z" fill="#b3916e"/><path d="M187.354,98.458a2.99,2.99,0,0,0-1.431-.126,2.007,2.007,0,0,0-1.3.687,2.161,2.161,0,0,0-.454.87,3.859,3.859,0,0,0-.145,1.043,4.314,4.314,0,0,0,.174,1.228,1.911,1.911,0,0,0,.58.938,2.236,2.236,0,0,0,1.034.493,2.628,2.628,0,0,0,1.286-.029,1.93,1.93,0,0,0,1.179-.792,2.744,2.744,0,0,0,.349-.754,3.7,3.7,0,0,0,.135-1.064,3.213,3.213,0,0,0-.329-1.489A1.973,1.973,0,0,0,187.354,98.458Zm-.155,3.635a.987.987,0,0,1-.532.434.92.92,0,0,1-.589-.019.866.866,0,0,1-.407-.26,2.108,2.108,0,0,1-.328-1.228,1.782,1.782,0,0,1,.367-1.325,1.006,1.006,0,0,1,.426-.222.935.935,0,0,1,.58.01,1,1,0,0,1,.512.444,1.967,1.967,0,0,1,.222,1.044A2.18,2.18,0,0,1,187.2,102.093Z" fill="#b3916e"/><path d="M192.257,98.3a1.726,1.726,0,0,0-.85.193,1.632,1.632,0,0,0-.619.6V97.549a.661.661,0,0,0-.658-.657h-.657v4.427a2,2,0,0,0,.792,1.856,3.244,3.244,0,0,0,1.722.484,3.089,3.089,0,0,0,.976-.164,1.627,1.627,0,0,0,.783-.532,3.578,3.578,0,0,0,0-3.906A1.8,1.8,0,0,0,192.257,98.3Zm.445,3.829a.961.961,0,0,1-.831.406.942.942,0,0,1-.812-.406,2.014,2.014,0,0,1-.271-1.18,1.866,1.866,0,0,1,.29-1.1.976.976,0,0,1,.831-.387.924.924,0,0,1,.793.406,1.776,1.776,0,0,1,.29,1.083A2.023,2.023,0,0,1,192.7,102.132Z" fill="#b3916e"/><path d="M198.726,98.671A2.91,2.91,0,0,0,197.1,98.3a2.224,2.224,0,0,0-1.488.445,1.49,1.49,0,0,0-.542.986h1.295a.53.53,0,0,1,.31-.29,1.415,1.415,0,0,1,.483-.077,1.989,1.989,0,0,1,.551.086.367.367,0,0,1,.3.378q0,.387-.851.5a2.919,2.919,0,0,0-.309.049,1.158,1.158,0,0,1-.232.028,2.74,2.74,0,0,0-1.209.464,1.344,1.344,0,0,0-.473,1.161,1.434,1.434,0,0,0,.522,1.247,2.028,2.028,0,0,0,1.218.377,7.738,7.738,0,0,0,.8-.048,2.4,2.4,0,0,0,.861-.262,1.711,1.711,0,0,0,.666-.628,2.217,2.217,0,0,0,.281-1.208v-1.76A1.24,1.24,0,0,0,198.726,98.671Zm-.7,2.784a1.069,1.069,0,0,1-1.16,1.16.73.73,0,0,1-.5-.155.626.626,0,0,1-.174-.464.781.781,0,0,1,.136-.425,1.133,1.133,0,0,1,.5-.252l.445-.1a3.636,3.636,0,0,0,.754-.251Z" fill="#b3916e"/><path d="M200.73,96.911h-.7v6.651h1.353V97.549a.6.6,0,0,0-.193-.454A.649.649,0,0,0,200.73,96.911Z" fill="#b3916e"/><path d="M206.321,97.568a.633.633,0,0,0-.193-.464.615.615,0,0,0-.445-.193h-.7V102.6q0,.888.744.947a10.115,10.115,0,0,0,1.383.019v-1h-.406c-.258,0-.387-.109-.387-.329V99.367h.136a.651.651,0,0,0,.463-.184.625.625,0,0,0,.194-.474v-.271h-.793Z" fill="#b3916e"/><path d="M210.432,98.419a3.782,3.782,0,0,0-1.015.136,2.4,2.4,0,0,0-.861.425,2.1,2.1,0,0,0-.609.821,3.191,3.191,0,0,0-.222,1.267v2.494h1.353v-2.649a1.157,1.157,0,0,1,.271-.85,1.13,1.13,0,0,1,.832-.271h.444V98.419h-.193Z" fill="#b3916e"/><path d="M214.929,98.671A2.91,2.91,0,0,0,213.3,98.3a2.224,2.224,0,0,0-1.488.445,1.49,1.49,0,0,0-.542.986h1.3a.53.53,0,0,1,.31-.29,1.415,1.415,0,0,1,.483-.077,1.989,1.989,0,0,1,.551.086.367.367,0,0,1,.3.378q0,.387-.851.5a2.918,2.918,0,0,0-.309.049,1.158,1.158,0,0,1-.232.028,2.74,2.74,0,0,0-1.209.464,1.344,1.344,0,0,0-.473,1.161,1.434,1.434,0,0,0,.522,1.247,2.028,2.028,0,0,0,1.218.377,7.738,7.738,0,0,0,.8-.048,2.4,2.4,0,0,0,.861-.262,1.711,1.711,0,0,0,.666-.628,2.217,2.217,0,0,0,.281-1.208v-1.76A1.24,1.24,0,0,0,214.929,98.671Zm-.7,2.784a1.071,1.071,0,0,1-1.16,1.16.73.73,0,0,1-.5-.155A.626.626,0,0,1,212.4,102a.78.78,0,0,1,.136-.425,1.133,1.133,0,0,1,.5-.252l.445-.1a3.658,3.658,0,0,0,.754-.251Z" fill="#b3916e"/><path d="M219.542,98.883l-.908,3.152-1.026-3.616h-1.43l1.8,5.143h1.373l1.817-5.143h-1.005A.607.607,0,0,0,219.542,98.883Z" fill="#b3916e"/><path d="M224.1,98.3a2.156,2.156,0,0,0-1.721.716,3.465,3.465,0,0,0,.02,3.924,2.154,2.154,0,0,0,1.721.716,2.461,2.461,0,0,0,1.508-.445,2.112,2.112,0,0,0,.812-1.237h-.967a.568.568,0,0,0-.357.1.428.428,0,0,0-.146.154c-.038.039-.074.074-.106.106a.267.267,0,0,1-.106.068,1.09,1.09,0,0,1-.561.136.913.913,0,0,1-.754-.31,1.335,1.335,0,0,1-.29-.89h3.345a.321.321,0,0,0,.02-.135v-.213A2.945,2.945,0,0,0,225.9,99,2.315,2.315,0,0,0,224.1,98.3Zm-.947,2.165a1.115,1.115,0,0,1,.29-.773.944.944,0,0,1,.7-.27.928.928,0,0,1,.715.27,1.254,1.254,0,0,1,.271.773Z" fill="#b3916e"/><path d="M227.976,96.911h-.7v6.651h1.353V97.549a.6.6,0,0,0-.193-.454A.649.649,0,0,0,227.976,96.911Z" fill="#b3916e"/><path d="M234.786,100.41a.753.753,0,0,1-.165-.019,1.783,1.783,0,0,1-.2-.058q-1.007-.211-1.006-.522a.392.392,0,0,1,.174-.348,1.153,1.153,0,0,1,.58-.116,1.04,1.04,0,0,1,.638.174l.155.155a.615.615,0,0,0,.56.329h.832a1.7,1.7,0,0,0-.6-1.257,2.626,2.626,0,0,0-1.6-.445,2.4,2.4,0,0,0-1.508.445,1.539,1.539,0,0,0-.561,1.218,1.188,1.188,0,0,0,.387.928,3.043,3.043,0,0,0,1.373.6,3.56,3.56,0,0,0,.522.116q.812.174.812.523a.412.412,0,0,1-.232.367,1.254,1.254,0,0,1-.6.135,1.372,1.372,0,0,1-.773-.193.712.712,0,0,1-.29-.58h-1.315v.058a1.553,1.553,0,0,0,.561,1.295,2.546,2.546,0,0,0,1.643.445,2.93,2.93,0,0,0,1.74-.426,1.544,1.544,0,0,0,.619-1.314,1.22,1.22,0,0,0-.368-.929A3.584,3.584,0,0,0,234.786,100.41Z" fill="#b3916e"/><path d="M239.437,98.3a2.153,2.153,0,0,0-1.72.716,2.866,2.866,0,0,0-.6,1.933,2.9,2.9,0,0,0,.619,1.991,2.155,2.155,0,0,0,1.721.716,2.461,2.461,0,0,0,1.508-.445,2.107,2.107,0,0,0,.812-1.237h-.967a.57.57,0,0,0-.357.1.428.428,0,0,0-.146.154l-.106.106a.267.267,0,0,1-.106.068,1.09,1.09,0,0,1-.561.136.913.913,0,0,1-.754-.31,1.335,1.335,0,0,1-.29-.89h3.345a.321.321,0,0,0,.02-.135v-.213A2.95,2.95,0,0,0,241.236,99,2.319,2.319,0,0,0,239.437,98.3Zm-.947,2.165a1.115,1.115,0,0,1,.29-.773.944.944,0,0,1,.7-.27.928.928,0,0,1,.715.27,1.254,1.254,0,0,1,.271.773Z" fill="#b3916e"/><path d="M245.269,98.419a3.782,3.782,0,0,0-1.015.136,2.4,2.4,0,0,0-.861.425,2.093,2.093,0,0,0-.609.821,3.191,3.191,0,0,0-.222,1.267v2.494h1.353v-2.649a1.157,1.157,0,0,1,.271-.85,1.128,1.128,0,0,1,.831-.271h.445V98.419h-.193Z" fill="#b3916e"/><path d="M249.457,98.883l-.909,3.152-1.025-3.616h-1.431l1.8,5.143h1.372l1.818-5.143h-1A.607.607,0,0,0,249.457,98.883Z" fill="#b3916e"/><path d="M252.62,98.419h-.7v5.143h1.353V99.077a.661.661,0,0,0-.657-.658Z" fill="#b3916e"/><path d="M252.62,96.911h-.7v1.063h1.353v-.406a.659.659,0,0,0-.657-.657Z" fill="#b3916e"/><path d="M257.059,102.074a.881.881,0,0,0-.155.154c-.038.039-.074.074-.106.106a.267.267,0,0,1-.106.068,1.089,1.089,0,0,1-.561.136.913.913,0,0,1-.754-.31,1.81,1.81,0,0,1-.348-1.257,1.891,1.891,0,0,1,.348-1.276.944.944,0,0,1,.7-.27.928.928,0,0,1,.715.27,1.151,1.151,0,0,1,.194.29h1.353a2.657,2.657,0,0,0-.5-.986,2.315,2.315,0,0,0-1.8-.7,2.156,2.156,0,0,0-1.721.716,3.465,3.465,0,0,0,.02,3.924,2.154,2.154,0,0,0,1.721.716,2.456,2.456,0,0,0,1.507-.445,2.108,2.108,0,0,0,.813-1.237h-.967A.529.529,0,0,0,257.059,102.074Z" fill="#b3916e"/><path d="M261.285,98.3a2.153,2.153,0,0,0-1.72.716,2.866,2.866,0,0,0-.6,1.933,2.9,2.9,0,0,0,.619,1.991,2.155,2.155,0,0,0,1.721.716,2.461,2.461,0,0,0,1.508-.445,2.107,2.107,0,0,0,.812-1.237h-.967a.57.57,0,0,0-.357.1.428.428,0,0,0-.146.154c-.038.039-.074.074-.106.106a.267.267,0,0,1-.106.068,1.089,1.089,0,0,1-.561.136.913.913,0,0,1-.754-.31,1.335,1.335,0,0,1-.29-.89h3.345a.321.321,0,0,0,.02-.135v-.213A2.95,2.95,0,0,0,263.084,99,2.319,2.319,0,0,0,261.285,98.3Zm-.947,2.165a1.115,1.115,0,0,1,.29-.773.944.944,0,0,1,.7-.27.928.928,0,0,1,.715.27,1.254,1.254,0,0,1,.271.773Z" fill="#b3916e"/><path d="M268.49,100.99a3.582,3.582,0,0,0-1.373-.58.745.745,0,0,1-.164-.019,1.792,1.792,0,0,1-.2-.058q-1.005-.211-1.005-.522a.392.392,0,0,1,.174-.348,1.147,1.147,0,0,1,.579-.116,1.04,1.04,0,0,1,.638.174l.155.155a.616.616,0,0,0,.561.329h.832a1.7,1.7,0,0,0-.6-1.257,2.631,2.631,0,0,0-1.605-.445,2.409,2.409,0,0,0-1.508.445,1.539,1.539,0,0,0-.561,1.218,1.188,1.188,0,0,0,.387.928,3.054,3.054,0,0,0,1.373.6,3.559,3.559,0,0,0,.522.116q.812.174.812.523a.412.412,0,0,1-.232.367,1.254,1.254,0,0,1-.6.135,1.374,1.374,0,0,1-.773-.193.714.714,0,0,1-.29-.58h-1.315v.058a1.553,1.553,0,0,0,.561,1.295,2.549,2.549,0,0,0,1.643.445,2.934,2.934,0,0,0,1.741-.426,1.546,1.546,0,0,0,.619-1.314A1.22,1.22,0,0,0,268.49,100.99Z" fill="#b3916e"/><path d="M81.118,73.109a10.175,10.175,0,0,0-1.4-4.295l0,0a3.538,3.538,0,0,0-.256-1.792,1.847,1.847,0,0,0-1.382-1.079.14.14,0,0,0-.086.01.134.134,0,0,0-.049.077,2.056,2.056,0,0,0,.255,1.734,2.861,2.861,0,0,0,1.411,1.089h0c.9,2.029.416,3.851-.673,6.116a10.536,10.536,0,0,1-.866,1.461,49.158,49.158,0,0,1-3.9,4.409,11.41,11.41,0,0,0-2.92,5.039A10.631,10.631,0,0,0,72.6,92.841a16.73,16.73,0,0,1-.655-3.176,5.616,5.616,0,0,1,.587-3.147,8.1,8.1,0,0,1,.894-1.225q2.532-3.041,5.218-5.946a11.213,11.213,0,0,0,1.819-2.341A7.092,7.092,0,0,0,81.118,73.109Z" fill="#0d2c3b"/><path d="M84.045,71.188h.005a3.538,3.538,0,0,0,.015-1.81A1.846,1.846,0,0,0,82.859,68.1a.1.1,0,0,0-.147.066,2.054,2.054,0,0,0-.006,1.752,2.851,2.851,0,0,0,1.231,1.286c.483,2.156-.34,3.847-1.84,5.856a10.457,10.457,0,0,1-1.131,1.267,49,49,0,0,1-4.676,3.576,11.425,11.425,0,0,0-3.834,4.385c-.951,2.216-.533,4.233.139,6.549a10.5,10.5,0,0,1-.085-2.552,5.98,5.98,0,0,1,1.068-3.124,8.172,8.172,0,0,1,1.113-1.03q3.069-2.5,6.263-4.832a11.231,11.231,0,0,0,2.236-1.947,7.088,7.088,0,0,0,1.4-3.7A10.171,10.171,0,0,0,84.045,71.188Z" fill="#b3916e"/><path d="M87.525,73.689a3.539,3.539,0,0,0,.082-1.808,1.846,1.846,0,0,0-1.158-1.317.131.131,0,0,0-.087-.006.135.135,0,0,0-.062.067,2.052,2.052,0,0,0-.071,1.751,2.855,2.855,0,0,0,1.181,1.33c.111,2.2-.98,3.723-2.788,5.45A10.566,10.566,0,0,1,83.3,80.217a49.087,49.087,0,0,1-5.2,2.75,11.416,11.416,0,0,0-4.509,3.687c-1.306,2.028-1.266,3.791-.988,6.187a9.354,9.354,0,0,1,.29-2.4A5.611,5.611,0,0,1,74.544,87.7a8.053,8.053,0,0,1,1.269-.83q3.439-1.953,6.978-3.725A11.2,11.2,0,0,0,85.319,81.6a7.094,7.094,0,0,0,1.992-3.414,10.179,10.179,0,0,0,.209-4.493Z" fill="#0d2c3b"/><path d="M70.13,67.776a15.228,15.228,0,0,0,3.341-5.684,4.565,4.565,0,0,0,.3-1.9.445.445,0,0,0-.17-.314.632.632,0,0,0-.5-.06,10.825,10.825,0,0,0-9.017,9.33c-1.282.492-5.174,2.718-2.03,10.927,0,0,3.084,8.2,10.322,12.826a.211.211,0,0,0,.282-.3c-2.309-3.157-9.849-14.273-8.339-22.83A6.726,6.726,0,0,0,70.13,67.776Z" fill="#b3916e"/></g></svg>
