<svg xmlns="http://www.w3.org/2000/svg"  viewBox="0 0 246 60"><path d="M43.447,59.942c-2.172-.362-3.768-2.316-5.991-5.2-7.38-9.587-18.177-24.125-22.6-34.7a18.366,18.366,0,0,1-1.737-6.957c.14-6.781,7.271-4.973,11.343-3.3,2.876,1.182,5.616-2.042,7.741-3.758A27.7,27.7,0,0,1,42.535.589c9.743-2.482,16.347,3.164,18.726,12.7,1.266,5.079.436,12.455-1.461,19.8-2.166,8.381-5.741,16.831-9.161,21.751C48.123,58.467,46.166,60,44.14,60A4.217,4.217,0,0,1,43.447,59.942ZM16.874,13.157a15.052,15.052,0,0,0,1.446,5.41C22.606,28.821,33.262,43.09,40.43,52.4c1.686,2.189,2.85,3.663,3.622,3.79.66.11,1.678-.895,3.511-3.533,3.187-4.585,6.545-12.555,8.6-20.515,1.755-6.794,2.55-13.5,1.448-17.928-1.863-7.459-6.442-11.9-14.164-9.936A24,24,0,0,0,34.547,9c-3.609,2.913-6.361,6.419-11.5,4.309a14.99,14.99,0,0,0-4.678-1.35C17.519,11.958,16.893,12.263,16.874,13.157Zm-5.967,41.2C7.574,49.342,4.06,40.946,1.957,32.648.139,25.484-.64,18.319.612,13.292,2,7.719,5.092,2.614,10.756.725S22.565.862,27.35,4.055a1.915,1.915,0,0,1,.53,2.634,1.869,1.869,0,0,1-2.606.535C21.5,4.7,16.426,2.845,11.934,4.342,7.562,5.8,5.325,9.959,4.263,14.215,3.171,18.6,3.916,25.1,5.592,31.711c2,7.895,5.313,15.835,8.435,20.534,1.8,2.71,2.991,3.946,3.919,3.939s2.18-1.274,3.982-3.569c1.439-1.838,2.792-3.8,4.073-5.751a1.868,1.868,0,0,1,2.605-.536,1.912,1.912,0,0,1,.53,2.633c-1.35,2.058-2.748,4.084-4.267,6.019-2.516,3.208-4.549,4.983-6.91,5h-.031C15.576,59.98,13.467,58.215,10.907,54.359Zm153.824-9.867a3.981,3.981,0,0,1,4.053-4.211,3.91,3.91,0,0,1,4.006,4.2,4.031,4.031,0,1,1-8.059.011Zm1.249.012a2.746,2.746,0,0,0,2.78,2.949,2.671,2.671,0,0,0,2.78-2.949,2.8,2.8,0,0,0-2.757-3.052A2.736,2.736,0,0,0,165.98,44.5ZM116.8,44.492a3.981,3.981,0,0,1,4.052-4.211,3.91,3.91,0,0,1,4.007,4.2,4.031,4.031,0,1,1-8.059.011Zm1.25.012a2.745,2.745,0,0,0,2.78,2.949,2.671,2.671,0,0,0,2.78-2.949,2.8,2.8,0,0,0-2.758-3.052A2.735,2.735,0,0,0,118.055,44.5Zm74.263,3.959V45.169l-3.038-4.681v-.058h1.5l2.172,3.545,2.24-3.545h1.52v.058l-3.129,4.681v3.294Zm-8.655,0-2.4-2.777H179.6v2.777h-1.261V40.419c1.227,0,2.442.012,3.669.012a2.591,2.591,0,0,1,2.78,2.627,2.358,2.358,0,0,1-2.138,2.5L185,48.234l.135.23ZM179.6,44.516H182a1.37,1.37,0,0,0,1.509-1.435,1.417,1.417,0,0,0-1.5-1.48H179.6Zm-23.244,3.947V41.589h-2.588V40.431h6.438v1.158h-2.577v6.874Zm-7.563,0-.753-1.687h-4.267l-.742,1.687h-1.34l3.534-8.032H146.6l3.534,8.032Zm-4.547-2.857h3.332l-1.666-3.821Zm-8.509,2.857-2.4-2.777h-1.666v2.777h-1.26V40.419c1.227,0,2.443.012,3.669.012a2.591,2.591,0,0,1,2.78,2.627,2.357,2.357,0,0,1-2.138,2.5l2.352,2.674.136.23Zm-4.064-3.947h2.4a1.37,1.37,0,0,0,1.509-1.435,1.418,1.418,0,0,0-1.5-1.48h-2.409Zm-26.495,3.947V40.431h3.613c1.5,0,2.679.7,2.679,2.294a1.67,1.67,0,0,1-1.092,1.6,1.985,1.985,0,0,1,1.34,1.848c0,1.755-1.374,2.295-2.927,2.295Zm1.249-1.193h2.364c.7,0,1.666-.229,1.666-1.113,0-.86-.935-1.251-1.655-1.251h-2.374Zm0-3.512H108.8c.947,0,1.419-.379,1.419-1.01a1.27,1.27,0,0,0-1.43-1.159h-2.364ZM98.7,48.463l-.753-1.687H93.676l-.743,1.687h-1.34l3.535-8.032H96.5l3.535,8.032Zm-4.547-2.857H97.48l-1.666-3.821ZM81.823,48.463V40.431h1.261V47.27h4.153v1.193Zm53.037-24.53c0-4.99,3.254-7.6,7.4-7.573a5.185,5.185,0,0,1,4.521,2.348l.115-2h3.369V31.183h-3.311l-.172-2.113c-.807,1.7-3.024,2.524-4.607,2.553h-.07C137.935,31.624,134.86,28.983,134.86,23.933Zm3.512,0a4.107,4.107,0,0,0,4.2,4.4c5.528,0,5.528-8.777,0-8.777A4.083,4.083,0,0,0,138.373,23.933Zm-35.876.029c0-4.138,2.822-7.544,7.343-7.544a7.249,7.249,0,0,1,7.429,7.544c0,4.169-2.793,7.545-7.4,7.545S102.5,28.13,102.5,23.962Zm3.512,0c0,2.2,1.3,4.257,3.859,4.257s3.858-2.055,3.858-4.257a4.056,4.056,0,0,0-3.858-4.285C107.334,19.677,106.009,21.79,106.009,23.962Zm120.3-.029a7.137,7.137,0,0,1,7.228-7.427,6.426,6.426,0,0,1,5.816,3.346V16.681h1.411v14.5H239.35V28.1a6.621,6.621,0,0,1-5.816,3.317A7.187,7.187,0,0,1,226.306,23.933Zm1.412,0a5.77,5.77,0,0,0,5.816,6.077c7.918,0,7.918-12.124,0-12.124A5.744,5.744,0,0,0,227.718,23.933ZM217.61,26.721V17.886h-3.024v-1.2h3.024V12.455l1.382-.147v4.373h4.838v1.2h-4.838v8.835c0,1.967.4,3.347,2.621,3.347a5.187,5.187,0,0,0,2.188-.588l.489,1.174a6.128,6.128,0,0,1-2.677.733C218.589,31.388,217.61,29.569,217.61,26.721Zm-35.732-2.788a7.223,7.223,0,0,1,7.228-7.486c4,0,7.572,2.5,7.026,8.161H183.318a5.638,5.638,0,0,0,5.788,5.372,6.629,6.629,0,0,0,5.125-2.2l1.008.822a7.753,7.753,0,0,1-6.133,2.788A7.044,7.044,0,0,1,181.878,23.933Zm1.44-.588h11.546c-.029-3.581-2.332-5.577-5.758-5.577A5.732,5.732,0,0,0,183.318,23.345Zm-59.169,7.9-6.075-14.56h3.83l1.958,4.785,2.188,6.106,2.16-6.047,1.958-4.844H134l-6.047,14.56Zm120.44-.059V10.634H246V31.183Zm-33.342,0V22.846c0-3.288-1.986-5.049-5.067-5.019a5,5,0,0,0-4.982,5.284v8.072h-1.411v-14.5h1.382v2.584a5.634,5.634,0,0,1,5.068-2.848c3.8,0,6.421,2.378,6.421,6.4v8.366Zm-49.465,0V10.634H168.6c6.824,0,10.107,4.99,10.222,10.039.116,5.225-3.167,10.509-10.222,10.509Zm1.555-1.526H168.6c5.989,0,8.754-4.579,8.667-8.983-.086-4.286-2.85-8.542-8.667-8.542h-5.269Zm-67,1.526L85.624,17.5V31.183h-3.8V10.634H84.9L95.616,24.461V10.634h3.8V31.183ZM41.984,22.547c2.624-3.041,2.87-6.081,0-9.123,3.009,2.741,6.014,2.776,9.024,0-2.45,3.042-3.009,6.082,0,9.123C48,19.75,44.992,19.786,41.984,22.547Z" transform="translate(0 0)"/></svg>
